<svg width="48" height="48" viewBox="0 0 48 48" fill="none" xmlns="http://www.w3.org/2000/svg">
<circle cx="23.94" cy="23.94" r="13.44" fill="#FFEDE7"/>
<path d="M30.3401 33.2601C29.8801 30.5601 29.1401 28.0001 28.2201 25.6201C30.1801 25.3801 32.4401 25.4201 35.0601 25.9201C34.5401 28.9401 32.8001 31.5801 30.3401 33.2601ZM17.2001 32.9201C19.1001 30.0601 21.7401 27.2401 26.0201 26.0601C27.0201 28.6401 27.8401 31.4401 28.2801 34.4001C26.9601 34.9401 25.5201 35.2401 24.0001 35.2401C21.4401 35.2201 19.0801 34.3601 17.2001 32.9201ZM12.7801 24.0001V23.6401H12.8401C16.8401 23.6401 20.8201 23.3801 24.3801 22.3201C24.6401 22.8601 24.9001 23.4001 25.1601 23.9801C20.4801 25.3601 17.5601 28.4401 15.5601 31.3801C13.8201 29.4001 12.7801 26.8201 12.7801 24.0001ZM19.1801 13.8601C20.3201 15.3801 21.8401 17.6001 23.3401 20.3201C20.1801 21.1801 16.6601 21.4201 13.1001 21.4201C13.8601 18.0801 16.1601 15.3201 19.1801 13.8601ZM31.2801 15.4601C29.7001 17.3801 27.7201 18.7001 25.4601 19.6001C24.0201 16.9401 22.5401 14.7201 21.3601 13.1001C22.2201 12.9001 23.1001 12.7801 24.0001 12.7801C26.7801 12.7801 29.3001 13.7801 31.2801 15.4601ZM32.8201 17.0601C34.2601 18.9001 35.1401 21.1801 35.2201 23.6801C32.2001 23.1601 29.6001 23.1401 27.3601 23.4801C27.0801 22.8401 26.7801 22.2001 26.4801 21.5801C28.8801 20.6001 31.0401 19.1601 32.8201 17.0601ZM24.0001 10.5601C16.5801 10.5601 10.5601 16.5801 10.5601 24.0001C10.5601 31.4201 16.5801 37.4401 24.0001 37.4401C31.4201 37.4401 37.4401 31.4201 37.4401 24.0001C37.4401 16.5801 31.4201 10.5601 24.0001 10.5601Z" fill="#B12E00"/>
</svg>
