<svg width="32" height="32" viewBox="0 0 32 32" fill="none" xmlns="http://www.w3.org/2000/svg">
<circle cx="15.96" cy="15.96" r="8.96" fill="#FFEDE7"/>
<path d="M20.2267 22.1734C19.92 20.3734 19.4267 18.6667 18.8134 17.08C20.12 16.92 21.6267 16.9467 23.3734 17.28C23.0267 19.2934 21.8667 21.0534 20.2267 22.1734ZM11.4667 21.9467C12.7334 20.04 14.4934 18.16 17.3467 17.3734C18.0134 19.0934 18.56 20.96 18.8534 22.9334C17.9734 23.2934 17.0134 23.4934 16 23.4934C14.2934 23.48 12.72 22.9067 11.4667 21.9467ZM8.52004 16V15.76H8.56004C11.2267 15.76 13.88 15.5867 16.2534 14.88C16.4267 15.24 16.6 15.6 16.7734 15.9867C13.6534 16.9067 11.7067 18.96 10.3734 20.92C9.21337 19.6 8.52004 17.88 8.52004 16ZM12.7867 9.24004C13.5467 10.2534 14.56 11.7334 15.56 13.5467C13.4534 14.12 11.1067 14.28 8.73337 14.28C9.24004 12.0534 10.7734 10.2134 12.7867 9.24004ZM20.8534 10.3067C19.8 11.5867 18.48 12.4667 16.9734 13.0667C16.0134 11.2934 15.0267 9.81337 14.24 8.73337C14.8134 8.60004 15.4 8.52004 16 8.52004C17.8534 8.52004 19.5334 9.18671 20.8534 10.3067ZM21.88 11.3734C22.84 12.6 23.4267 14.12 23.48 15.7867C21.4667 15.44 19.7334 15.4267 18.24 15.6534C18.0534 15.2267 17.8534 14.8 17.6534 14.3867C19.2534 13.7334 20.6934 12.7734 21.88 11.3734ZM16 7.04004C11.0534 7.04004 7.04004 11.0534 7.04004 16C7.04004 20.9467 11.0534 24.96 16 24.96C20.9467 24.96 24.96 20.9467 24.96 16C24.96 11.0534 20.9467 7.04004 16 7.04004Z" fill="#B12E00"/>
</svg>
