<svg width="32" height="32" viewBox="0 0 32 32" fill="none" xmlns="http://www.w3.org/2000/svg">
<rect x="8" y="8" width="16" height="16" rx="3" fill="#FFEDE7"/>
<path d="M16 7.04004C13.5734 7.04004 13.2667 7.05337 12.3067 7.09337C11.3467 7.13337 10.7067 7.29337 10.1334 7.50671C9.54671 7.73337 9.04004 8.04004 8.54671 8.54671C8.05337 9.05337 7.73337 9.54671 7.50671 10.1334C7.29337 10.7067 7.13337 11.3467 7.09337 12.3067C7.05337 13.2667 7.04004 13.5734 7.04004 16C7.04004 18.4267 7.05337 18.7334 7.09337 19.6934C7.13337 20.6534 7.29337 21.2934 7.50671 21.8667C7.73337 22.4534 8.04004 22.96 8.54671 23.4534C9.05337 23.9467 9.54671 24.2534 10.1334 24.4934C10.7067 24.72 11.36 24.8667 12.3067 24.9067C13.2667 24.9467 13.5734 24.96 16 24.96C18.4267 24.96 18.7334 24.9467 19.6934 24.9067C20.6534 24.8667 21.2934 24.7067 21.8667 24.4934C22.4534 24.2667 22.96 23.96 23.4534 23.4534C23.9467 22.9467 24.2534 22.4534 24.4934 21.8667C24.72 21.2934 24.8667 20.64 24.9067 19.6934C24.9467 18.7334 24.96 18.4267 24.96 16C24.96 13.56 24.9467 13.2667 24.9067 12.3067C24.8667 11.3467 24.7067 10.7067 24.4934 10.1334C24.2667 9.54671 23.96 9.04004 23.4534 8.54671C22.9467 8.05337 22.4534 7.74671 21.8667 7.50671C21.2934 7.28004 20.64 7.13337 19.6934 7.09337C18.7334 7.05337 18.4267 7.04004 16 7.04004ZM16 8.65337C18.3867 8.65337 18.68 8.66671 19.6267 8.70671C20.5067 8.74671 20.9734 8.89337 21.2934 9.01337C21.7067 9.17337 22.0134 9.37337 22.32 9.68004C22.64 10 22.8267 10.2934 22.9867 10.7067C23.1067 11.0267 23.2534 11.4934 23.2934 12.3734C23.3334 13.32 23.3467 13.6 23.3467 16C23.3467 18.3867 23.3334 18.68 23.2934 19.6267C23.2534 20.5067 23.1067 20.9734 22.9867 21.2934C22.8267 21.7067 22.6267 22.0134 22.32 22.32C22 22.64 21.7067 22.8267 21.2934 22.9867C20.9734 23.1067 20.5067 23.2534 19.6267 23.2934C18.68 23.3334 18.4 23.3467 16 23.3467C13.6 23.3467 13.32 23.3334 12.3734 23.2934C11.4934 23.2534 11.0267 23.1067 10.7067 22.9867C10.2934 22.8267 9.98671 22.6267 9.68004 22.32C9.36004 22 9.17337 21.7067 9.01337 21.2934C8.89337 20.9734 8.74671 20.5067 8.70671 19.6267C8.66671 18.68 8.65337 18.3867 8.65337 16C8.65337 13.6134 8.66671 13.32 8.70671 12.3734C8.74671 11.4934 8.89337 11.0267 9.01337 10.7067C9.17337 10.2934 9.37337 9.98671 9.68004 9.68004C10 9.36004 10.2934 9.17337 10.7067 9.01337C11.0267 8.89337 11.4934 8.74671 12.3734 8.70671C13.32 8.66671 13.6134 8.65337 16 8.65337Z" fill="#B12E00"/>
<path d="M16 18.9866C14.3467 18.9866 13.0134 17.6532 13.0134 15.9999C13.0134 14.3466 14.3467 13.0132 16 13.0132C17.6534 13.0132 18.9867 14.3466 18.9867 15.9999C18.9867 17.6532 17.6534 18.9866 16 18.9866ZM16 11.3999C13.4534 11.3999 11.4 13.4666 11.4 15.9999C11.4 18.5466 13.4667 20.5999 16 20.5999C18.5334 20.5999 20.6 18.5332 20.6 15.9999C20.6 13.4532 18.5467 11.3999 16 11.3999Z" fill="#B12E00"/>
<path d="M21.8534 11.2133C21.8534 11.8133 21.3734 12.2933 20.7734 12.2933C20.1734 12.2933 19.6934 11.8133 19.6934 11.2133C19.6934 10.6133 20.1734 10.1333 20.7734 10.1333C21.3734 10.1466 21.8534 10.6266 21.8534 11.2133Z" fill="#B12E00"/>
</svg>
