<svg width="48" height="48" viewBox="0 0 48 48" fill="none" xmlns="http://www.w3.org/2000/svg">
<rect x="12" y="12" width="24" height="24" rx="3" fill="#FFEDE7"/>
<path d="M24.0001 10.5601C20.3601 10.5601 19.9001 10.5801 18.4601 10.6401C17.0201 10.7001 16.0601 10.9401 15.2001 11.2601C14.3201 11.6001 13.5601 12.0601 12.8201 12.8201C12.0801 13.5801 11.6001 14.3201 11.2601 15.2001C10.9401 16.0601 10.7001 17.0201 10.6401 18.4601C10.5801 19.9001 10.5601 20.3601 10.5601 24.0001C10.5601 27.6401 10.5801 28.1001 10.6401 29.5401C10.7001 30.9801 10.9401 31.9401 11.2601 32.8001C11.6001 33.6801 12.0601 34.4401 12.8201 35.1801C13.5801 35.9201 14.3201 36.3801 15.2001 36.7401C16.0601 37.0801 17.0401 37.3001 18.4601 37.3601C19.9001 37.4201 20.3601 37.4401 24.0001 37.4401C27.6401 37.4401 28.1001 37.4201 29.5401 37.3601C30.9801 37.3001 31.9401 37.0601 32.8001 36.7401C33.6801 36.4001 34.4401 35.9401 35.1801 35.1801C35.9201 34.4201 36.3801 33.6801 36.7401 32.8001C37.0801 31.9401 37.3001 30.9601 37.3601 29.5401C37.4201 28.1001 37.4401 27.6401 37.4401 24.0001C37.4401 20.3401 37.4201 19.9001 37.3601 18.4601C37.3001 17.0201 37.0601 16.0601 36.7401 15.2001C36.4001 14.3201 35.9401 13.5601 35.1801 12.8201C34.4201 12.0801 33.6801 11.6201 32.8001 11.2601C31.9401 10.9201 30.9601 10.7001 29.5401 10.6401C28.1001 10.5801 27.6401 10.5601 24.0001 10.5601ZM24.0001 12.9801C27.5801 12.9801 28.0201 13.0001 29.4401 13.0601C30.7601 13.1201 31.4601 13.3401 31.9401 13.5201C32.5601 13.7601 33.0201 14.0601 33.4801 14.5201C33.9601 15.0001 34.2401 15.4401 34.4801 16.0601C34.6601 16.5401 34.8801 17.2401 34.9401 18.5601C35.0001 19.9801 35.0201 20.4001 35.0201 24.0001C35.0201 27.5801 35.0001 28.0201 34.9401 29.4401C34.8801 30.7601 34.6601 31.4601 34.4801 31.9401C34.2401 32.5601 33.9401 33.0201 33.4801 33.4801C33.0001 33.9601 32.5601 34.2401 31.9401 34.4801C31.4601 34.6601 30.7601 34.8801 29.4401 34.9401C28.0201 35.0001 27.6001 35.0201 24.0001 35.0201C20.4001 35.0201 19.9801 35.0001 18.5601 34.9401C17.2401 34.8801 16.5401 34.6601 16.0601 34.4801C15.4401 34.2401 14.9801 33.9401 14.5201 33.4801C14.0401 33.0001 13.7601 32.5601 13.5201 31.9401C13.3401 31.4601 13.1201 30.7601 13.0601 29.4401C13.0001 28.0201 12.9801 27.5801 12.9801 24.0001C12.9801 20.4201 13.0001 19.9801 13.0601 18.5601C13.1201 17.2401 13.3401 16.5401 13.5201 16.0601C13.7601 15.4401 14.0601 14.9801 14.5201 14.5201C15.0001 14.0401 15.4401 13.7601 16.0601 13.5201C16.5401 13.3401 17.2401 13.1201 18.5601 13.0601C19.9801 13.0001 20.4201 12.9801 24.0001 12.9801Z" fill="#B12E00"/>
<path d="M24.0001 28.4801C21.5201 28.4801 19.5201 26.4801 19.5201 24.0001C19.5201 21.5201 21.5201 19.5201 24.0001 19.5201C26.4801 19.5201 28.4801 21.5201 28.4801 24.0001C28.4801 26.4801 26.4801 28.4801 24.0001 28.4801ZM24.0001 17.1001C20.1801 17.1001 17.1001 20.2001 17.1001 24.0001C17.1001 27.8201 20.2001 30.9001 24.0001 30.9001C27.8001 30.9001 30.9001 27.8001 30.9001 24.0001C30.9001 20.1801 27.8201 17.1001 24.0001 17.1001Z" fill="#B12E00"/>
<path d="M32.78 16.8202C32.78 17.7202 32.06 18.4402 31.16 18.4402C30.26 18.4402 29.54 17.7202 29.54 16.8202C29.54 15.9202 30.26 15.2002 31.16 15.2002C32.06 15.2202 32.78 15.9402 32.78 16.8202Z" fill="#B12E00"/>
</svg>
