<svg width="32" height="32" viewBox="0 0 32 32" fill="none" xmlns="http://www.w3.org/2000/svg">
<path d="M9.13327 7C10.3199 7 11.2799 7.96 11.2799 9.16C11.2799 10.3467 10.3199 11.32 9.13327 11.32C7.9466 11.32 6.97327 10.36 6.97327 9.16C6.97327 7.96 7.93327 7 9.13327 7Z" fill="#B12E00"/>
<path d="M10.9865 12.9331H7.26648V24.8798H10.9865V12.9331Z" fill="#B12E00"/>
<path d="M13.3199 12.9335H16.8799V14.5735H16.9333C17.4266 13.6401 18.6399 12.6401 20.4533 12.6401C24.2133 12.6401 24.9066 15.1201 24.9066 18.3335V24.8801H21.1999V19.0668C21.1999 17.6801 21.1733 15.8935 19.2666 15.8935C17.3333 15.8935 17.0399 17.4001 17.0399 18.9601V24.8668H13.3199V12.9335Z" fill="#B12E00"/>
</svg>
