<svg width="48" height="48" viewBox="0 0 48 48" fill="none" xmlns="http://www.w3.org/2000/svg">
<path d="M13.7 10.5C15.48 10.5 16.92 11.94 16.92 13.74C16.92 15.52 15.48 16.98 13.7 16.98C11.92 16.98 10.46 15.54 10.46 13.74C10.46 11.94 11.9 10.5 13.7 10.5Z" fill="#B12E00"/>
<path d="M16.4799 19.3994H10.8999V37.3194H16.4799V19.3994Z" fill="#B12E00"/>
<path d="M19.9801 19.4H25.3201V21.86H25.4001C26.1401 20.46 27.9601 18.96 30.6801 18.96C36.3201 18.96 37.3601 22.68 37.3601 27.5V37.32H31.8001V28.6C31.8001 26.52 31.7601 23.84 28.9001 23.84C26.0001 23.84 25.5601 26.1 25.5601 28.44V37.3H19.9801V19.4Z" fill="#B12E00"/>
</svg>
