<svg width="120" height="50" viewBox="0 0 120 50" fill="none" xmlns="http://www.w3.org/2000/svg">
<path d="M14.6525 33.0648V49.4133H8.16136V33.0648H6.53856V49.4133H0.0473633V26.5254H22.7665V49.4133H16.2753V33.0648H14.6525Z" fill="#B12E00"/>
<path d="M32.2541 42.8739V33.0648H30.6313V42.8739H32.2541ZM38.7453 49.4133H24.1401V26.5254H38.7453V49.4133Z" fill="#B12E00"/>
<path d="M54.724 49.4133H48.2328V33.0648H46.61V49.4133H40.1188V26.5254H54.724V49.4133Z" fill="#B12E00"/>
<path d="M56.0975 49.4133V42.8739H64.2115V41.2391H56.0975V26.5254H70.7027V33.0648H62.5887V34.6997H70.7027V49.4133H56.0975Z" fill="#B12E00"/>
<path d="M86.6814 26.5254V33.0648H82.6244V49.4133H76.1332V33.0648H72.0762V26.5254H86.6814Z" fill="#B12E00"/>
<path d="M102.66 26.5254V33.0648H94.5462V34.6997H102.66V41.2391H94.5462V42.8739H102.66V49.4133H88.055V26.5254H102.66Z" fill="#B12E00"/>
<path d="M112.695 33.0648H110.525V34.9822H112.695V33.0648ZM118.639 26.5254V35.5171L115.393 38.7868H118.639V49.4133H112.148V41.2391H110.525V49.4133H104.034V26.5254H118.639Z" fill="#B12E00"/>
<path d="M0 25.111V0H7.16932V25.111H0Z" fill="#B12E00"/>
<path d="M25.0926 25.111H17.9233V7.17456H16.131V25.111H8.96164V0H25.0926V25.111Z" fill="#B12E00"/>
<path d="M50.9463 7.17456H48.5892V9.25077H50.9463V7.17456ZM57.5509 0V16.1428H48.5892V25.111H41.4199V0H57.5509Z" fill="#B12E00"/>
<path d="M59.3432 25.111V0H66.5125V25.111H59.3432Z" fill="#B12E00"/>
<path d="M77.8312 7.17456H75.4741V9.25077H77.8312V7.17456ZM84.4358 0V9.86502L80.8511 13.4523H84.4358V25.111H77.2665V16.1428H75.4741V25.111H68.3048V0H84.4358Z" fill="#B12E00"/>
<path d="M102.359 0V7.17456H93.3974V8.9682H102.359V16.1428H93.3974V17.9364H102.359V25.111H86.2281V0H102.359Z" fill="#B12E00"/>
<path d="M111.321 7.17456V14.3491L113.113 12.5555V7.17456H111.321ZM104.151 25.111V0H120V19.7797L115.486 25.111H104.151Z" fill="#B12E00"/>
<rect x="24.8951" y="16.0674" width="9.31765" height="1.97797" fill="#B12E00"/>
<rect x="32.5188" y="7.30762" width="9.31765" height="1.97797" fill="#B12E00"/>
</svg>
