<svg width="48" height="48" viewBox="0 0 48 48" fill="none" xmlns="http://www.w3.org/2000/svg">
<path d="M37.4401 15.6596C36.4601 16.0996 35.3801 16.3996 34.2801 16.5196C35.4201 15.8396 36.3001 14.7596 36.7001 13.4596C35.6401 14.0996 34.4601 14.5596 33.2001 14.7996C32.2001 13.7196 30.7601 13.0596 29.1801 13.0596C26.1401 13.0596 23.6601 15.5196 23.6601 18.5796C23.6601 19.0196 23.7001 19.4396 23.8001 19.8396C19.2201 19.6196 15.1601 17.4196 12.4401 14.0796C11.9601 14.8996 11.6801 15.8396 11.6801 16.8596C11.6801 18.7796 12.6601 20.4596 14.1401 21.4396C13.2401 21.4196 12.3801 21.1596 11.6401 20.7596C11.6401 20.7796 11.6401 20.7996 11.6401 20.8196C11.6401 23.4996 13.5401 25.7196 16.0601 26.2196C15.6001 26.3396 15.1201 26.4196 14.6001 26.4196C14.2401 26.4196 13.9001 26.3796 13.5601 26.3196C14.2601 28.5196 16.3001 30.0996 18.7201 30.1396C16.8401 31.6196 14.4601 32.4996 11.8801 32.4996C11.4401 32.4996 11.0001 32.4796 10.5601 32.4196C13.0001 33.9996 15.9001 34.9196 19.0201 34.9196C29.1601 34.9196 34.7201 26.5196 34.7201 19.2196C34.7201 18.9796 34.7201 18.7396 34.7001 18.4996C35.7601 17.7396 36.7001 16.7596 37.4401 15.6596Z" fill="#B12E00"/>
</svg>
