<svg width="32" height="32" viewBox="0 0 32 32" fill="none" xmlns="http://www.w3.org/2000/svg">
<path d="M24.96 10.4399C24.3067 10.7332 23.5867 10.9332 22.8534 11.0132C23.6134 10.5599 24.2 9.83988 24.4667 8.97321C23.76 9.39988 22.9734 9.70654 22.1334 9.86654C21.4667 9.14654 20.5067 8.70654 19.4534 8.70654C17.4267 8.70654 15.7734 10.3465 15.7734 12.3865C15.7734 12.6799 15.8 12.9599 15.8667 13.2265C12.8134 13.0799 10.1067 11.6132 8.29337 9.38654C7.97337 9.93321 7.78671 10.5599 7.78671 11.2399C7.78671 12.5199 8.44004 13.6399 9.42671 14.2932C8.82671 14.2799 8.25337 14.1065 7.76004 13.8399C7.76004 13.8532 7.76004 13.8665 7.76004 13.8799C7.76004 15.6665 9.02671 17.1465 10.7067 17.4799C10.4 17.5599 10.08 17.6132 9.73337 17.6132C9.49337 17.6132 9.26671 17.5865 9.04004 17.5465C9.50671 19.0132 10.8667 20.0665 12.48 20.0932C11.2267 21.0799 9.64004 21.6665 7.92004 21.6665C7.62671 21.6665 7.33337 21.6532 7.04004 21.6132C8.66671 22.6665 10.6 23.2799 12.68 23.2799C19.44 23.2799 23.1467 17.6799 23.1467 12.8132C23.1467 12.6532 23.1467 12.4932 23.1334 12.3332C23.84 11.8265 24.4667 11.1732 24.96 10.4399Z" fill="#B12E00"/>
</svg>
