<svg width="32" height="32" viewBox="0 0 32 32" fill="none" xmlns="http://www.w3.org/2000/svg">
<g opacity="0.72">
<path opacity="0.72" d="M16 0C7.168 0 0 7.168 0 16C0 18.944 0 20.352 1.536 22.784L0 32L8.704 30.208C11.008 31.488 13.184 32 16 32C24.832 32 32 24.832 32 16C32 7.168 24.832 0 16 0Z" fill="#808285"/>
</g>
<path d="M16 0C7.168 0 0 7.168 0 16C0 18.944 0 20.352 1.536 22.784L0 32L8.704 30.208C11.008 31.488 13.184 32 16 32C24.832 32 32 24.832 32 16C32 7.168 24.832 0 16 0Z" fill="white"/>
<path d="M16.0006 3.32812C8.96064 3.32812 3.32864 8.96013 3.32864 16.0001C3.32864 18.3041 3.96864 20.6081 5.12064 22.4001L4.09664 27.9041L9.72864 27.1361C11.5206 28.1601 13.6966 28.8001 16.0006 28.8001C23.0406 28.8001 28.6726 23.1681 28.6726 16.1281C28.6726 9.08812 22.9126 3.32812 16.0006 3.32812Z" fill="url(#paint0_linear_1502_4612)"/>
<path d="M10.113 8.70375C10.625 8.44775 11.137 8.44775 11.521 8.44775C11.649 8.44775 11.6491 8.44775 11.7771 8.44775C11.9051 8.44775 12.033 8.70375 12.161 8.95975C12.417 9.34375 12.545 9.72775 12.929 10.2398L13.313 11.0078C13.313 11.0078 13.441 11.1358 13.441 11.2638C13.569 11.3918 13.569 11.5198 13.697 11.6478C13.697 11.7758 13.825 11.9038 13.825 11.9038C13.825 12.0318 13.697 12.2878 13.313 12.5438C13.057 12.7998 12.673 13.0558 12.417 13.3118C12.161 13.5678 11.905 13.8238 11.905 13.9518C11.905 14.0798 11.905 14.0798 11.905 14.2078C11.905 14.3358 12.033 14.3358 12.033 14.4638C12.033 14.4638 12.161 14.5918 12.161 14.7198C12.161 14.8478 12.289 14.8478 12.289 14.9758C12.801 15.8718 13.441 16.7678 14.081 17.4078C14.721 18.0478 15.617 18.6878 16.513 19.1998C16.513 19.1998 16.641 19.1998 16.769 19.3278C16.897 19.3278 16.897 19.4558 17.025 19.4558C17.025 19.4558 17.153 19.4558 17.281 19.5838C17.409 19.5838 17.409 19.5838 17.537 19.5838C17.665 19.5838 17.793 19.4558 18.049 19.3278C18.305 19.0718 18.433 18.9438 18.561 18.6878C18.689 18.4318 18.945 18.1758 19.073 18.0478C19.329 17.7918 19.457 17.7918 19.585 17.7918C19.713 17.7918 19.841 17.7918 19.841 17.9198C19.969 17.9198 20.097 18.0478 20.225 18.1758C20.353 18.3038 20.481 18.3038 20.481 18.3038C20.481 18.3038 20.737 18.4318 20.865 18.5598C21.121 18.6878 21.249 18.8158 21.505 18.9438C21.889 19.0718 22.145 19.1998 22.401 19.3278C22.657 19.4558 22.785 19.5838 23.041 19.7118C23.169 19.8398 23.297 19.8398 23.297 19.9678C23.297 19.9678 23.297 20.0958 23.297 20.2238C23.297 20.7358 23.169 21.1198 23.041 21.6318C22.785 22.0158 22.401 22.3998 21.633 22.7838C20.865 23.1678 20.353 23.2958 19.713 23.2958C19.585 23.2958 19.457 23.2958 19.201 23.2958C19.073 23.2958 18.817 23.2958 18.817 23.1678C18.689 23.1678 18.561 23.0398 18.305 23.0398C18.049 23.0398 17.921 22.9118 17.921 22.9118C17.793 22.9118 17.665 22.7838 17.409 22.7838C17.153 22.6558 17.025 22.6558 17.025 22.6558C15.489 22.0158 13.953 20.9918 12.417 19.4558C10.881 17.9198 9.85705 16.3838 9.34505 14.8478C9.34505 14.8478 9.21705 14.5918 9.21705 14.4638C9.08905 14.2078 9.08905 14.0798 9.08905 13.9518C9.08905 13.8238 8.96105 13.6958 8.96105 13.5678C8.96105 13.3118 8.83305 13.1838 8.83305 13.0558C8.83305 12.9278 8.83305 12.7998 8.70505 12.6718C8.70505 12.5438 8.70505 12.2878 8.70505 12.1598C8.70505 11.6478 8.83305 11.0078 9.21705 10.2398C9.21705 9.34375 9.60105 8.95975 10.113 8.70375Z" fill="white"/>
<defs>
<linearGradient id="paint0_linear_1502_4612" x1="20.8261" y1="3.87277" x2="9.68128" y2="31.6516" gradientUnits="userSpaceOnUse">
<stop stop-color="#4BC25A"/>
<stop offset="1" stop-color="#368C41"/>
</linearGradient>
</defs>
</svg>
