<svg width="24" height="24" viewBox="0 0 24 24" fill="none" xmlns="http://www.w3.org/2000/svg">
<path d="M7 17C6.45 17 5.97933 16.8043 5.588 16.413C5.196 16.021 5 15.55 5 15V4C5 3.45 5.196 2.979 5.588 2.587C5.97933 2.19567 6.45 2 7 2H11.175C11.4417 2 11.696 2.05 11.938 2.15C12.1793 2.25 12.3917 2.39167 12.575 2.575L14 4H21C21.55 4 22.021 4.196 22.413 4.588C22.8043 4.97933 23 5.45 23 6V15C23 15.55 22.8043 16.021 22.413 16.413C22.021 16.8043 21.55 17 21 17H7ZM3 21C2.45 21 1.97933 20.8043 1.588 20.413C1.196 20.021 1 19.55 1 19V7C1 6.71667 1.096 6.479 1.288 6.287C1.47933 6.09567 1.71667 6 2 6C2.28333 6 2.521 6.09567 2.713 6.287C2.90433 6.479 3 6.71667 3 7V19H19C19.2833 19 19.5207 19.096 19.712 19.288C19.904 19.4793 20 19.7167 20 20C20 20.2833 19.904 20.5207 19.712 20.712C19.5207 20.904 19.2833 21 19 21H3ZM10.025 13H17.975C18.1917 13 18.346 12.9083 18.438 12.725C18.5293 12.5417 18.5083 12.3667 18.375 12.2L15.95 9.025C15.85 8.89167 15.7167 8.825 15.55 8.825C15.3833 8.825 15.25 8.89167 15.15 9.025L13.25 11.5L12.1 10C12 9.86667 11.8667 9.8 11.7 9.8C11.5333 9.8 11.4 9.86667 11.3 10L9.625 12.2C9.49167 12.3667 9.47067 12.5417 9.562 12.725C9.654 12.9083 9.80833 13 10.025 13Z" fill="#B12E00"/>
</svg>
